# xmcd
#
# Track frame offsets:
#	150
#	38770
#	78757
#	108380
#	117890
#	150467
#	183687
#
# Disc length: 2730 seconds
#
# Revision: 0
# Processed by: cddbd v1.4PL0 Copyright (c) Steve Scherf et al.
# Submitted via: dBpowerAMP V4.0
#
DISCID=4b0aa807
DTITLE=20th Century  - Blues
DYEAR=1900
DGENRE=
TTITLE0=In former times
TTITLE1=Marathon
TTITLE2=Study to be quiet
TTITLE3=four pieces
TTITLE4=Twenthieth century tutti
TTITLE5=Life on the farm
TTITLE6=extra track
EXTD=
EXTT0=
EXTT1=
EXTT2=
EXTT3=
EXTT4=
EXTT5=
EXTT6=
PLAYORDER=
